<svg xmlns="http://www.w3.org/2000/svg" viewBox="0 0 32 32" width="32" height="32">
  <defs>
    <linearGradient id="brainGradient" x1="0%" y1="0%" x2="100%" y2="100%">
      <stop offset="0%" style="stop-color:#4A90E2;stop-opacity:1" />
      <stop offset="100%" style="stop-color:#357ABD;stop-opacity:1" />
    </linearGradient>
  </defs>

  <!-- Brain outline -->
  <path d="M16 2C12.7 2 10 4.7 10 8c0 1.1.3 2.1.8 3H8c-1.1 0-2 .9-2 2v2c0 1.1.9 2 2 2h1.2c-.1.6-.2 1.2-.2 1.8 0 3.3 2.7 6 6 6s6-2.7 6-6c0-.6-.1-1.2-.2-1.8H24c1.1 0 2-.9 2-2v-2c0-1.1-.9-2-2-2h-2.8c.5-.9.8-1.9.8-3 0-3.3-2.7-6-6-6z" fill="url(#brainGradient)"/>

  <!-- Brain wrinkles/details -->
  <path d="M12 8c0-1.1.9-2 2-2h4c1.1 0 2 .9 2 2v1c0 .6-.4 1-1 1h-6c-.6 0-1-.4-1-1V8z" fill="#FFFFFF" opacity="0.3"/>
  <path d="M14 12h4c.6 0 1 .4 1 1v1c0 .6-.4 1-1 1h-4c-.6 0-1-.4-1-1v-1c0-.6.4-1 1-1z" fill="#FFFFFF" opacity="0.2"/>
  <circle cx="16" cy="18" r="1.5" fill="#FFFFFF" opacity="0.4"/>

  <!-- Heart symbol for psychology/emotions -->
  <path d="M25 20c-1.5-1.5-4-1.5-5.5 0L16 22.5 12.5 20c-1.5-1.5-4-1.5-5.5 0s-1.5 4 0 5.5L16 29l8.5-3.5c1.5-1.5 1.5-4 0-5.5z" fill="#E74C3C"/>
</svg>